HIERARCHY
ROOT Hips
{
	OFFSET -3.958830 18.904000 13.208200
	CHANNELS 6 Xposition Yposition Zposition Zrotation Yrotation Xrotation 
	JOINT LHipJoint
	{
		OFFSET 0.000000 0.000000 0.000000
		CHANNELS 3 Zrotation Yrotation Xrotation
		JOINT LeftUpLeg
		{
			OFFSET 1.800000 -1.400000 0.085000
			CHANNELS 3 Zrotation Yrotation Xrotation
			JOINT LeftLeg
			{
				OFFSET 2.215000 -6.000000 0.000000
				CHANNELS 3 Zrotation Yrotation Xrotation
				JOINT LeftFoot
				{
					OFFSET 2.500000 -6.900000 0.000000
					CHANNELS 3 Zrotation Yrotation Xrotation
					JOINT LeftToeBase
					{
						OFFSET 0.200000 -0.500000 1.950000
						CHANNELS 3 Zrotation Yrotation Xrotation
						End Site
						{
							OFFSET 0.000000 0.000000 0.000000
						}
					}
				}
			}
		}
	}
	JOINT RHipJoint
	{
		OFFSET 0.000000 0.000000 0.000000
		CHANNELS 3 Zrotation Yrotation Xrotation
		JOINT RightUpLeg
		{
			OFFSET -1.800000 -1.400000 0.085000
			CHANNELS 3 Zrotation Yrotation Xrotation
			JOINT RightLeg
			{
				OFFSET -2.215000 -6.000000 0.000000
				CHANNELS 3 Zrotation Yrotation Xrotation
				JOINT RightFoot
				{
					OFFSET -2.500000 -6.900000 0.000000
					CHANNELS 3 Zrotation Yrotation Xrotation
					JOINT RightToeBase
					{
						OFFSET -0.200000 -0.500000 1.950000
						CHANNELS 3 Zrotation Yrotation Xrotation
						End Site
						{
							OFFSET 0.000000 0.000000 0.000000
						}
					}
				}
			}
		}
	}
	JOINT LowerBack
	{
		OFFSET 0.000000 0.000000 0.000000
		CHANNELS 3 Zrotation Yrotation Xrotation
		JOINT Spine
		{
			OFFSET -0.087000 1.940000 -0.288900
			CHANNELS 3 Zrotation Yrotation Xrotation
			JOINT Spine1
			{
				OFFSET 0.000000 1.950000 0.060000
				CHANNELS 3 Zrotation Yrotation Xrotation
				JOINT Neck
				{
					OFFSET 0.000000 0.000000 0.000000
					CHANNELS 3 Zrotation Yrotation Xrotation
					JOINT Neck1
					{
						OFFSET 0.000000 1.600000 0.340000
						CHANNELS 3 Zrotation Yrotation Xrotation
						JOINT Head
						{
							OFFSET 0.000000 1.667000 -0.240000
							CHANNELS 3 Zrotation Yrotation Xrotation
							End Site
							{
								OFFSET 0.000000 0.000000 0.000000
							}
						}
					}
				}
				JOINT LeftShoulder
				{
					OFFSET 0.000000 0.000000 0.000000
					CHANNELS 3 Zrotation Yrotation Xrotation
					JOINT LeftArm
					{
						OFFSET 2.700000 1.550000 -0.730000
						CHANNELS 3 Zrotation Yrotation Xrotation
						JOINT LeftForeArm
						{
							OFFSET 5.450000 0.000000 0.000000
							CHANNELS 3 Zrotation Yrotation Xrotation
							JOINT LeftHand
							{
								OFFSET 3.450000 0.000000 0.000000
								CHANNELS 3 Zrotation Yrotation Xrotation
								JOINT LeftHandIndex1
								{
									OFFSET 0.750000 0.000000 0.000000
									CHANNELS 3 Zrotation Yrotation Xrotation
									End Site
									{
										OFFSET 0.000000 0.000000 0.000000
									}
								}
							}
						}
					}
				}
				JOINT RightShoulder
				{
					OFFSET 0.000000 0.000000 0.000000
					CHANNELS 3 Zrotation Yrotation Xrotation
					JOINT RightArm
					{
						OFFSET -2.700000 1.550000 -0.730000
						CHANNELS 3 Zrotation Yrotation Xrotation
						JOINT RightForeArm
						{
							OFFSET -5.450000 0.000000 0.000000
							CHANNELS 3 Zrotation Yrotation Xrotation
							JOINT RightHand
							{
								OFFSET -3.450000 0.000000 0.000000
								CHANNELS 3 Zrotation Yrotation Xrotation
								JOINT RightHandIndex1
								{
									OFFSET -0.750000 0.000000 0.000000
									CHANNELS 3 Zrotation Yrotation Xrotation
									End Site
									{
										OFFSET 0.000000 0.000000 0.000000
									}
								}
							}
						}
					}
				}
			}
		}
	}
}
MOTION
Frames: 6
Frame Time: 0.016667
-1.201240 16.738010 -1.537130 -0.397128 -33.751950 1.501126 -15.341596 14.501194 2.689429 7.098030 -1.224288 -9.432361 -3.523814 5.352552 13.309164 -0.198357 4.360406 3.379088 0.523250 0.521990 0.234230 18.034049 -10.234853 2.399597 -11.089423 0.811197 -18.150743 1.485999 -2.542535 7.295124 0.186675 -3.019953 3.426996 0.505210 0.727910 0.350390 -2.626601 -4.865860 -6.506453 1.173854 -4.131936 5.872966 0.742716 -4.789549 6.093405 -3.400796 -6.609277 -7.214378 -13.910071 16.681530 20.000367 -1.500430 16.451360 6.925460 -5.398067 4.048440 1.168915 -4.568281 -24.237036 11.351755 131.685292 -59.659864 -100.972123 -4.522399 3.010227 -0.328610 0.761890 -0.377530 0.432450 12.852792 -1.637926 3.526728 10.245327 -11.301829 2.086437 -152.089993 47.126059 -129.397669 1.875120 -3.087116 -0.113820 0.031820 -0.323580 0.074160 
-1.227460 16.733630 -1.533060 -0.548086 -33.539611 1.482885 -15.337165 14.515410 2.667071 7.244522 -1.246966 -9.527218 -3.264164 5.353026 13.775332 -0.214271 4.372674 3.367932 0.535930 0.531130 0.238990 18.036602 -10.257333 2.392011 -10.947538 0.796270 -17.959311 1.737893 -2.638399 7.659692 0.183003 -3.046412 3.419414 0.514410 0.722320 0.346520 -2.633541 -4.848734 -6.481917 1.336461 -4.100453 5.743500 0.585905 -4.729673 6.405703 -3.309982 -6.564663 -7.234623 -13.824808 16.687535 20.118770 -1.247090 16.316260 6.788260 -5.416363 4.091223 1.099168 -4.505516 -24.159236 11.267607 132.004289 -59.314800 -101.057309 -4.514577 3.024878 -0.318340 0.755860 -0.378310 0.434610 12.640001 -1.733545 3.650512 10.567239 -12.277895 1.846420 -151.965666 47.291490 -129.756327 1.866548 -3.093053 -0.117600 0.032760 -0.326570 0.068760 
-1.267860 16.729540 -1.535740 -0.694984 -33.571122 1.182276 -15.320841 14.555938 2.646126 7.649008 -1.210113 -9.371508 -3.015553 5.413909 14.387459 -0.240108 4.427097 3.340798 0.553180 0.550650 0.260810 18.044451 -10.324641 2.357781 -10.623582 0.758627 -17.933841 1.675636 -2.765618 8.813228 0.168937 -3.036287 3.417004 0.530790 0.707170 0.330150 -2.650253 -4.809112 -6.455418 1.510885 -4.228795 6.065867 0.311676 -4.767866 6.665938 -3.231222 -6.694900 -7.141721 -14.148543 17.103445 20.403771 -1.173450 16.456320 5.697850 -5.421144 4.471747 1.165603 -4.997124 -22.825380 11.140982 134.510944 -58.537544 -103.880771 -4.513726 3.067706 -0.283280 0.734170 -0.359460 0.428860 12.413965 -1.956289 3.378223 9.958154 -11.844852 1.987962 -152.679070 47.716681 -131.437318 1.850644 -3.073918 -0.131350 0.065920 -0.325280 0.054270 
-1.304930 16.718580 -1.541530 -1.476198 -33.271921 1.447070 -15.285864 14.570945 2.603741 8.334090 -1.288065 -9.780072 -2.455316 5.364093 15.037464 -0.278977 4.447175 3.329987 0.548790 0.541360 0.255480 18.073006 -10.396311 2.350083 -9.777239 0.835077 -18.122681 1.701318 -2.902474 10.125745 0.177166 -3.043292 3.417060 0.537800 0.721060 0.316270 -2.746878 -4.691757 -6.417526 2.792773 -4.402143 6.208294 -0.280729 -4.850361 7.148189 -2.962349 -6.874760 -7.216068 -14.469917 17.303387 20.400072 -0.935900 16.313820 5.590010 -5.569873 4.518924 1.258722 -6.012658 -22.073264 11.089527 135.641888 -57.695765 -104.936573 -4.522282 3.087228 -0.271180 0.735380 -0.372220 0.425750 11.927859 -1.942030 3.374615 9.060574 -12.250401 2.119674 -154.605773 47.309758 -134.947744 1.827573 -3.077321 -0.152740 0.091480 -0.311150 0.046200 
-1.354910 16.712810 -1.551370 -1.819808 -33.373702 1.878160 -15.279847 14.564231 2.569763 8.733849 -1.388025 -10.351469 -2.092551 5.344325 15.606666 -0.285627 4.470723 3.325826 0.531160 0.531920 0.235580 18.082497 -10.433271 2.344875 -9.031988 0.993260 -18.848598 1.662527 -3.003246 11.509698 0.203600 -3.065434 3.414192 0.542440 0.762340 0.328640 -2.770157 -4.587577 -6.364283 2.958918 -4.386981 5.675032 -0.304305 -4.858186 7.625569 -2.808250 -6.603440 -7.101613 -13.822558 17.585270 20.514191 -0.989910 16.787920 6.290710 -5.510118 4.275709 1.012891 -4.474926 -21.693638 10.945498 138.728458 -57.523110 -108.828718 -4.582082 3.182326 -0.312660 0.780670 -0.400380 0.430020 11.534571 -1.837865 3.458739 8.025583 -12.424643 2.605479 -156.828124 47.280983 -139.317552 1.807602 -3.103164 -0.155370 0.095320 -0.298690 0.054500 
-1.399250 16.717140 -1.558500 -2.308499 -32.832443 1.604407 -15.258498 14.590977 2.552662 9.555965 -1.397544 -10.203674 -1.817789 5.344839 15.847236 -0.266123 4.474052 3.303100 0.546650 0.536680 0.268470 18.091470 -10.493013 2.340183 -8.417612 0.976641 -18.579879 1.685569 -3.166236 12.576600 0.173336 -3.091058 3.393654 0.522570 0.706640 0.334600 -2.795724 -4.526455 -6.401312 3.471698 -4.531152 6.264485 -0.722518 -4.969111 8.178990 -2.339295 -6.460766 -7.346576 -13.580202 17.189566 21.525723 -1.554890 16.973490 5.793030 -5.639708 3.455750 0.812135 -2.457859 -21.256736 10.353918 141.013966 -57.645994 -112.066384 -4.530919 3.244755 -0.278550 0.740020 -0.358570 0.421350 10.671763 -1.198474 3.989570 7.625881 -13.209482 2.636774 -158.681524 46.249943 -142.390944 1.829935 -3.087859 -0.134260 0.066200 -0.318210 0.044690 
